<?xml version="1.0" standalone="no"?>
<!DOCTYPE svg PUBLIC "-//W3C//DTD SVG 20010904//EN"
 "http://www.w3.org/TR/2001/REC-SVG-20010904/DTD/svg10.dtd">
<svg version="1.0" xmlns="http://www.w3.org/2000/svg"
 width="500.000000pt" height="500.000000pt" viewBox="0 0 500.000000 500.000000"
 preserveAspectRatio="xMidYMid meet">

<g transform="translate(0.000000,500.000000) scale(0.100000,-0.100000)"
fill="#000000" stroke="none">
<path d="M0 2500 l0 -2500 2500 0 2500 0 0 2500 0 2500 -2500 0 -2500 0 0
-2500z m4097 1944 c72 -41 155 -134 201 -221 63 -122 83 -200 89 -339 7 -145
-11 -239 -62 -342 -43 -84 -80 -130 -155 -187 -60 -46 -203 -125 -227 -125
-12 0 -88 -138 -81 -146 4 -3 101 41 226 104 71 36 147 90 253 182 l52 44 -5
-94 c-6 -106 -35 -193 -96 -290 -48 -76 -145 -167 -227 -215 l-69 -40 52 -3
51 -3 55 -85 c31 -46 58 -84 61 -84 3 0 30 38 61 85 l55 85 65 0 c35 0 64 -2
64 -5 0 -2 -29 -50 -65 -105 -37 -56 -68 -107 -71 -115 -3 -7 26 -61 65 -119
39 -58 71 -108 71 -111 0 -3 -29 -5 -65 -5 l-65 0 -56 85 c-30 47 -57 85 -59
85 -2 0 -29 -38 -59 -85 l-56 -85 -65 0 c-36 0 -65 2 -65 5 0 3 32 53 71 111
39 58 68 112 65 119 -3 8 -34 59 -70 114 l-65 100 -58 -26 c-32 -14 -64 -30
-70 -36 -10 -7 -13 -59 -13 -198 l0 -189 -55 0 -55 0 0 163 c0 90 -3 166 -6
169 -3 3 -71 -21 -151 -53 -81 -32 -148 -57 -150 -56 -7 8 41 137 73 195 42
74 125 174 187 222 l45 35 -25 50 c-14 28 -27 52 -29 54 -16 17 -181 -185
-270 -329 l-59 -95 -2 40 c-4 56 -23 152 -40 200 -26 70 -29 78 -68 157 l-38
76 59 78 c90 117 204 224 297 279 45 26 118 68 161 94 117 68 279 231 329 331
82 164 72 302 -33 497 -22 41 -40 76 -40 78 0 9 94 -26 137 -51z m-231 -63
c67 -44 91 -83 110 -172 32 -156 -21 -290 -157 -395 -67 -52 -202 -119 -207
-104 -6 16 17 138 35 195 21 66 53 114 97 151 105 85 99 77 104 141 3 48 -2
77 -26 146 -16 48 -24 83 -18 79 7 -4 34 -22 62 -41z m-536 -638 c25 -28 32
-123 9 -123 -4 0 -24 8 -43 18 -34 16 -36 19 -36 74 l0 57 32 -10 c17 -5 35
-12 38 -16z m-170 -959 c0 -8 3 -13 8 -13 4 1 19 1 35 0 l27 -1 0 -185 0 -185
175 0 175 0 0 -38 c0 -30 7 -45 35 -72 40 -38 37 -50 -10 -50 -113 0 -370 -91
-449 -158 -15 -13 -13 -6 8 33 38 67 103 151 135 175 l26 19 -107 1 -108 0 0
230 c0 198 2 230 15 230 14 0 20 12 16 33 -1 5 3 6 9 2 5 -3 10 -13 10 -21z
m-2470 -104 l0 -90 44 0 c44 0 47 2 123 90 l78 89 73 1 c39 0 72 -2 72 -5 0
-3 -42 -53 -92 -111 -51 -58 -94 -108 -96 -112 -1 -4 41 -56 93 -115 52 -59
95 -110 95 -112 0 -3 -33 -5 -72 -5 l-73 0 -79 90 c-76 88 -79 90 -122 90
l-44 0 0 -90 0 -90 -60 0 -60 0 0 230 0 230 60 0 60 0 0 -90z m936 63 c84 -45
123 -130 110 -240 -8 -65 -17 -86 -59 -131 -48 -50 -104 -62 -299 -62 l-168 0
0 231 0 231 188 -4 c169 -3 191 -6 228 -25z m571 0 c6 -16 46 -104 88 -198 42
-93 83 -185 90 -202 l14 -33 -63 0 -64 0 -21 50 -22 50 -105 0 -106 0 -21 -50
-21 -50 -63 0 c-35 0 -63 2 -63 4 0 5 158 362 186 419 l18 37 71 0 c68 0 71
-1 82 -27z m781 -20 l-3 -48 -172 -3 -173 -2 0 -60 0 -60 135 0 135 0 0 -45 0
-45 -134 0 c-153 0 -146 5 -146 -97 l0 -53 -55 0 -55 0 0 138 c0 77 -3 180 -6
230 l-7 92 242 0 242 0 -3 -47z m-908 -648 c0 -8 -9 -15 -20 -15 -20 0 -26 11
-13 23 12 13 33 7 33 -8z m725 -9 c19 -8 35 -22 35 -30 0 -19 -21 -21 -38 -4
-16 16 -98 16 -114 0 -19 -19 10 -38 70 -46 82 -12 113 -56 68 -101 -45 -45
-177 -29 -184 23 -2 15 2 22 12 22 9 0 16 -4 16 -10 0 -5 14 -17 31 -26 38
-19 94 -12 109 15 13 26 -2 35 -74 49 -64 13 -81 23 -89 52 -14 56 79 89 158
56z m-1858 -84 c20 -46 39 -79 43 -75 3 4 21 43 40 86 28 65 36 77 56 77 24 0
24 -1 24 -105 0 -85 -3 -105 -15 -105 -11 0 -15 19 -17 88 l-3 87 -36 -85
c-46 -108 -60 -111 -100 -15 -43 100 -49 101 -49 7 0 -66 -3 -82 -15 -82 -12
0 -15 18 -15 106 l0 105 26 -3 c22 -3 31 -16 61 -86z m2133 53 c0 -20 5 -25
25 -25 14 0 25 -4 25 -10 0 -5 -11 -10 -26 -10 -24 0 -25 -2 -22 -47 2 -39 7
-50 26 -58 29 -13 28 -25 -2 -25 -32 0 -48 22 -54 78 -3 26 -10 51 -16 55 -8
6 -7 10 2 14 6 2 12 16 12 29 0 15 6 24 15 24 9 0 15 -9 15 -25z m-1611 -42
c60 -51 22 -133 -62 -133 -54 0 -84 22 -93 67 -5 26 -1 37 19 57 32 32 103 36
136 9z m267 -45 l31 -63 32 63 c17 34 38 62 46 62 11 0 5 -19 -22 -75 -48 -97
-62 -97 -108 -5 -39 78 -40 80 -22 80 7 0 27 -28 43 -62z m344 -13 c0 -60 -3
-75 -15 -75 -12 0 -15 15 -15 75 0 60 3 75 15 75 12 0 15 -15 15 -75z m350 55
c11 -11 20 -29 20 -40 0 -18 -7 -20 -71 -20 -75 0 -86 -11 -37 -39 21 -12 29
-12 58 2 41 21 54 12 21 -14 -14 -11 -39 -19 -62 -19 -50 0 -79 27 -79 75 0
50 28 75 85 75 32 0 51 -6 65 -20z m1050 0 c50 -50 7 -130 -70 -130 -79 0
-121 80 -68 130 30 28 110 28 138 0z m250 8 c0 -9 3 -9 12 0 14 14 68 16 68 2
0 -5 -11 -10 -24 -10 -34 0 -56 -35 -56 -87 0 -32 -4 -43 -15 -43 -12 0 -15
15 -15 75 0 60 3 75 15 75 8 0 15 -5 15 -12z m415 -13 c44 -43 34 -55 -46 -55
-61 0 -70 -2 -67 -17 6 -30 54 -40 89 -19 38 22 53 11 20 -15 -32 -26 -95 -25
-121 1 -29 29 -27 94 2 114 35 25 94 20 123 -9z"/>
<path d="M1330 2541 l0 -141 88 1 c101 0 147 14 175 50 26 36 33 106 14 151
-23 54 -63 71 -179 76 l-98 4 0 -141z"/>
<path d="M2101 2629 c-5 -13 -19 -46 -30 -72 -12 -27 -21 -51 -21 -53 0 -2 29
-4 64 -4 l65 0 -30 72 c-16 39 -31 74 -34 76 -2 3 -9 -6 -14 -19z"/>
<path d="M1344 1965 c-13 -21 -15 -31 -6 -50 22 -49 105 -42 118 10 15 59 -78
92 -112 40z"/>
<path d="M2318 1979 c-33 -18 -19 -29 39 -29 55 0 56 0 38 20 -20 22 -50 25
-77 9z"/>
<path d="M3356 1974 c-35 -35 -6 -94 46 -94 14 0 32 8 41 18 35 39 10 92 -43
92 -16 0 -36 -7 -44 -16z"/>
<path d="M4032 1978 c-25 -25 -13 -38 36 -38 58 0 68 7 45 32 -18 20 -63 24
-81 6z"/>
</g>
</svg>
